<svg xmlns="http://www.w3.org/2000/svg" width="546" height="308" fill="none" viewBox="0 0 546 308"><g fill="#1a1a1a" fill-rule="evenodd" clip-path="url(#a)" clip-rule="evenodd"><path d="M118.534 4.661c.416-.595 1.017-.378.642-2.954-1.399-4.217.383.792.218.076-.207 1.244-.971.639-1.438.571.143.559.337 1.459.578 2.307M29.683 262.733c-3.236-5.377-5.875-11.291-8.465-16.567-1.377 2.125-5.324 25.377-10.777 61.834h11.798c3.573-26.762 6.23-43.358 7.444-45.267M19.58 247.308c-2.615-4.992-5.046-9.746-7.505-13.358-1.338 1.937-6.114 30.437-12.681 74.05h10.664c4.772-35.799 8.24-58.642 9.522-60.692"/><path d="M10.898 232.5c-2.204-3.14-4.308-6.122-6.386-8.957-2.461 14.229-4.952 28.269-7.344 42.222a11216 11216 0 0 0-7.17 42.205l.157.028h9.587c3.573-24.797 7.368-50.049 11.156-75.5zm-7.25-10.432c-1.84-2.937-3.597-5.549-5.268-8.009-3.168 15.619-6.332 31.068-9.378 46.22A10036 10036 0 0 0-20 305.553v.608a333 333 0 0 0 8.519 1.51c2.378-14.046 4.893-28.314 7.43-42.704 2.494-14.149 5.149-28.433 7.699-42.899M120.499 308c-6.273-6.094-12.235-11.764-17.893-17.55-3.481 5.719-7.121 11.621-10.753 17.55zm-21.122-20.474c-6.475-6.803-12.483-12.443-18.136-17.651a713 713 0 0 0-18.55 26.807c2.792 3.419 5.643 7.258 8.626 11.32h15.257c4.3-7.026 8.565-13.819 12.803-20.476m-20.784-20.441c-5.6-4.999-10.534-9.751-15.323-14.323-5.599 7.502-11.343 15.505-16.944 23.399 4.276 5.464 8.995 11.052 13.85 17.225 6.17-8.922 12.08-17.571 18.417-26.301M60.95 250.658c-4.417-3.867-8.651-7.792-12.616-11.439-4.963 6.573-10.111 12.956-15.327 19.766a425 425 0 0 1 11.282 14.534c5.56-7.663 11.18-15.568 16.664-22.861zm-26.376-24.853c-3.04-3.01-6.031-5.696-8.921-8.293-4.097 4.85-8.573 10.184-12.657 15.341 2.315 3.112 5.002 6.436 7.68 10.223 4.653-6.09 9.196-11.4 13.898-17.271m-10.601-9.184c-2.583-2.528-5.196-4.822-7.468-7.384-3.664 4.322-7.507 8.775-11.077 13.097 1.947 2.919 4.119 5.845 6.386 8.963 3.962-4.856 8.186-9.922 12.16-14.676m-9.114-8.86c-2.1-2.322-4.112-4.436-6.04-6.537a823 823 0 0 0-9.977 11.592c1.539 2.409 3.356 4.85 5.26 7.538 3.568-4.276 7.343-8.559 10.76-12.593zm-7.252-7.708c-1.834-1.8-3.466-3.674-5.21-5.412-2.9 3.266-5.959 6.611-8.864 9.877 1.223 2.352 2.653 4.663 3.967 7.149 3.368-3.782 6.882-7.792 10.107-11.614m-5.886-6.321c-1.534-1.653-2.93-3.573-4.134-5.282-2.7 2.912-5.24 5.782-8.125 8.883 1.186 2.09 2.385 4.066 3.653 6.213 2.835-3.164 5.766-6.447 8.608-9.814zm4.728-61.494c1.776-.955 3.443-1.853 5.27-2.584-.001.262.053.42.218.402-1.94.909-3.997 2.112-5.611 2.976.006-.353.006-.455.124-.794M184.989 297.92c-10.96-7.377-20.449-14.364-30.352-20.787-5.905 10.019-12.044 19.924-18.243 30.869h43.201a686 686 0 0 1 5.394-10.082m-34.791-23.633c-8.71-6.139-16.857-12.019-24.396-17.407-6.324 9.411-12.586 18.788-18.822 28.744 7.32 6.776 14.811 14.319 23.374 21.645 6.564-11.537 13.388-22.305 19.844-32.982m-28.004-19.92c-7.224-4.18-13.617-8.792-19.834-13.085-5.735 7.678-11.66 15.728-17.387 24.126 5.831 5.464 11.813 11.041 18.517 17.438 6.388-10.02 12.359-19.459 18.704-28.479M99.53 238.999c-5.989-3.857-11.448-7.765-16.707-11.048-5.264 6.572-10.864 14.023-16.21 21.623 4.895 4.3 10.113 8.496 15.744 13.313 5.512-8.024 11.398-15.998 17.173-23.888M80.316 226.35c-5.009-2.971-9.535-6.135-14.023-8.719-4.992 5.867-9.777 11.967-14.875 18.522 4.008 3.493 8.419 7.055 12.844 11.013 5.292-6.94 10.778-14.291 16.054-20.816M20.618 126.308c-1.164-.119-2.217-.244-3.157-.426-1.928 1.898-3.697 3.668-5.586 5.468.942.13 1.83.438 2.83.671 1.946-1.835 3.824-3.743 5.913-5.713m29.977 80.737c-3.544-2.118-6.754-4.363-10.052-6.423-4.087 4.856-8.295 9.736-12.425 14.698 2.944 2.37 5.997 4.993 9.283 7.628 4.35-5.349 8.712-10.582 13.194-15.903m-11.893-7.083c-2.94-2.062-5.906-3.919-8.726-5.816-3.51 4.044-7.18 8.275-10.703 12.546 2.398 2.392 4.946 4.657 7.596 7.122 3.893-4.499 7.857-9.184 11.833-13.852m-10.482-6.94c-2.648-1.607-4.78-3.488-7.134-5.02-3.345 3.731-6.72 7.422-9.883 11.103 1.928 2.017 4.066 3.987 6.36 6.196 3.645-4.441 7.202-8.435 10.655-12.279zm-8.466-6.044c-2.206-1.545-4.21-3.112-6.317-4.321-2.922 3.164-5.992 6.457-9.097 10.16 1.68 1.744 3.44 3.447 5.405 5.429 3.227-3.653 6.665-7.621 10.01-11.268m-7.062-4.986c-1.845-1.465-3.616-2.698-5.135-4.118-2.676 2.898-5.437 5.902-8.103 8.723 1.39 1.641 2.792 3.454 4.454 5.231 2.914-3.409 5.86-6.622 8.784-9.838zm-6.221-5.089c-1.62-1.056-2.928-2.465-4.23-3.675a308 308 0 0 0-7.665 8.299c1.36 1.234 2.417 2.881 3.668 4.38 2.668-2.958 5.553-6.083 8.227-9.002zm-4.943-4.056c-1.413-1.027-2.335-2.397-3.493-3.572a337 337 0 0 0-6.538 6.998c1.03 1.29 1.943 2.731 2.983 4.22 2.348-2.556 4.678-5.118 7.048-7.646m364.634 21.368c-17.869-3.761-34.289-7.468-49.753-10.996-5.96 9.611-12.044 18.788-17.74 28.637 15.001 4.174 31.551 9.554 49.876 15.033a1664 1664 0 0 1 17.619-32.674zm-103.05-10.853c-12.474-2.765-23.449-5.492-34.373-7.554-5.357 7.253-11.19 14.767-17.007 22.644a2389 2389 0 0 1 33.866 10.558c5.601-8.639 11.698-17.511 17.514-25.65zm-14.677-56.456c-9.935-.399-19.23-1-28.199-1.476-5.046 5.509-9.986 10.882-14.734 16.466 8.7.789 17.939 1.794 27.767 3.23 4.905-6.292 9.801-12.386 15.166-18.22M301.225 308c-12.736-6.754-24.654-13.142-35.877-19.299A1079 1079 0 0 0 255.75 308zm-43.502-23.252c-14.622-7.775-27.505-15.272-40.11-21.98-6.613 11.439-13.387 23.741-20.128 36.02 4.126 3.051 8.325 6.111 12.632 9.212h36.257c3.84-7.946 7.616-15.67 11.349-23.252m-45.942-24.99c-11.413-5.601-21.948-10.803-31.627-15.96-6.236 9.468-12.879 19.63-18.878 30.115 9.428 6.531 19.57 13.232 30.722 20.452 6.443-12.093 13.168-23.326 19.783-34.607m-36.925-17.397c-9.429-4.821-18.021-9.036-26.168-13.064-5.616 7.981-11.541 16.239-17.497 24.638 7.823 5.327 16.387 11.2 25.406 17.379 6.189-10.422 12.157-19.641 18.259-28.955zm-31.192-16c-7.529-3.471-14.638-6.856-21.37-10.223-5.372 6.884-10.769 14.148-16.171 21.612 6.373 4.412 13.042 8.628 20.323 12.837 5.642-7.981 11.475-16.148 17.218-24.224zm-25.263-12.194c-6.118-3.458-11.976-6.01-17.788-8.537a2429 2429 0 0 1-15.58 19.658c5.497 3.083 11.244 6.663 17.036 10.638 5.366-7.356 10.971-14.728 16.332-21.759m-20.331-9.245c-5.164-2.499-10.262-4.849-15.225-6.929-4.396 5.544-9.046 11.069-13.635 16.596 4.507 2.789 9.279 5.793 14.118 9.013 4.978-6.328 10.005-12.659 14.74-18.68zm-32.802-15.206c-4.102-1.489-7.684-3.158-11.241-4.8a1113 1113 0 0 0-11.474 13.103c3.232 2.084 6.374 4.328 10.23 6.304a657 657 0 0 1 12.485-14.609zm-13.132-5.57c-3.456-1.636-6.576-3.266-9.646-4.471-3.564 3.867-6.863 7.632-10.551 11.813 2.811 1.829 5.705 3.594 8.697 5.618 3.919-4.391 7.6-8.712 11.5-12.96m-11.176-5.073c-2.8-1.318-5.342-2.685-7.979-3.828-3.349 3.584-6.676 7.1-9.654 10.649 2.173 1.602 4.73 3.136 7.25 4.783 3.577-3.958 7-7.793 10.381-11.604zm-9.9-4.328c-2.554-1.147-4.846-2.227-7.065-3.464-2.655 2.867-5.805 6.236-8.501 9.32 1.923 1.391 4.108 2.776 6.316 4.345 2.986-3.464 6.193-6.877 9.25-10.201m-8.292-4.09c-2.133-.948-4.259-1.885-6.13-2.839-2.602 2.761-5.105 5.492-7.692 8.191 1.639 1.238 3.53 2.38 5.314 3.908 2.818-3.181 5.553-6.219 8.508-9.258zm-6.676-3.367c-1.86-.885-3.47-1.874-5.248-2.675-2.252 2.307-4.637 4.845-7.04 7.338 1.485 1.113 2.919 2.368 4.54 3.647 2.524-2.777 5.146-5.492 7.748-8.31m-6.017-3.454c-1.414-1.045-2.817-2.027-4.217-2.765a1138 1138 0 0 0-6.495 6.859c1.1 1.182 2.324 2.279 3.617 3.448 2.402-2.58 4.784-5.038 7.095-7.544zm-5.03-3.293c-1.273-.693-2.48-1.42-3.51-2.329-1.954 2.067-3.738 3.936-5.836 6.174a66 66 0 0 0 2.85 3.004c2.1-2.182 4.185-4.328 6.496-6.849m194.864-7.6c-8.316-1.143-16.241-2.119-23.933-3.322-4.798 5.754-9.63 11.302-14.718 17.078 7.331 1.545 15.134 3.004 23.446 5.055 5.105-6.435 10.222-12.631 15.207-18.811zM45.58 123.316c-2.263.017-4.408.021-6.436.056-2.376 2.38-4.826 4.702-7.118 7.013 1.98-.034 3.697.297 5.865.375 2.502-2.5 5.045-4.993 7.691-7.447zm-.357-7.395c-2.052.249-3.997.437-5.881.591a2198 2198 0 0 0-6.67 6.286c1.735.011 3.525-.01 5.373-.084 2.315-2.203 4.776-4.527 7.178-6.793M439.332 308a2585 2585 0 0 1-17.768-7.559A395 395 0 0 0 418.7 308h20.634zM195.446 98.637c-7.172.375-13.982.704-20.469 1.01-3.999 3.965-7.957 7.986-12.039 11.825 6.489.039 12.982-.052 19.966-.147 4.052-4.294 8.341-8.492 12.54-12.688zm139.261 165.289a2430 2430 0 0 0-50.916-20.147c-6.206 11.461-12.849 23.776-18.907 36.97a1849 1849 0 0 0 50.325 25.332c6.19-14.337 12.877-28.541 19.496-42.155zm-103.336-40.631c-11.548-4.29-22.54-8.105-32.732-11.859a891 891 0 0 0-17.869 26.576c9.742 4.981 20.471 10.041 31.436 15.159 6.388-10.02 12.763-20.333 19.163-29.874zm-70.078-24.06c-7.979-2.698-15.259-5.163-22.192-7.702-5.026 6.185-10.286 12.904-15.331 19.812 6.601 3.185 13.827 6.565 21.123 10.058 5.275-7.673 10.956-15.193 16.402-22.168zm-26.152-8.928a637 637 0 0 0-18.733-5.964c-4.97 5.862-9.794 11.813-14.763 17.731 5.644 2.409 11.395 4.828 17.616 7.838 5.39-6.911 10.553-13.568 15.88-19.605m-21.289-6.616a1148 1148 0 0 1-16.076-5.289c-4.363 5.168-8.727 10.247-13.188 15.516 4.824 2.158 9.918 4.579 15.1 6.912a3253 3253 0 0 0 14.162-17.141zm-19.536-6.338c-4.693-1.413-9.291-2.772-13.49-4.125-4.387 4.884-8.552 9.429-12.66 14.313 3.938 1.552 8.177 3.311 12.818 5.527 4.378-5.559 8.991-10.768 13.332-15.715m-15.549-4.562c-4.267-1.175-8.09-2.521-11.933-3.624a376 376 0 0 0-11.18 12.659c3.47 1.517 7.04 3.203 11.182 4.607 3.847-4.391 7.932-9.145 11.929-13.642zm-13.978-4.283c-3.678-.988-7.14-1.845-10.408-2.8-3.448 3.759-6.997 7.457-10.272 11.138 2.992 1.136 6.27 2.476 9.526 4.084 3.64-4.261 7.387-8.314 11.154-12.422m-11.913-3.271a139 139 0 0 1-8.95-2.762c-3.187 3.43-6.405 6.849-9.41 10.184a124 124 0 0 0 8.129 3.517c3.405-3.601 6.771-7.304 10.233-10.939zm-10.906-3.106c-2.759-.835-5.21-1.776-7.576-2.521-2.931 2.937-5.817 5.947-8.67 8.866 2.1 1.301 4.507 2.476 7.112 3.527a832 832 0 0 1 9.136-9.872zm-9.317-2.664c-2.293-.79-4.574-1.454-6.785-2.062-2.417 2.528-5.085 5.289-7.537 7.974 1.987.818 3.925 1.749 6.054 2.658 2.676-2.807 5.452-5.629 8.268-8.572zm-7.387-2.523a88 88 0 0 0-5.747-2.14c-2.31 2.391-4.806 5.066-7.087 7.481 1.72.863 3.386 1.783 5.181 2.67 2.511-2.657 5.124-5.271 7.655-8.009zm-6.633-2.679c-1.756-.654-3.331-1.231-4.959-1.727-2.256 2.231-4.467 4.412-6.634 6.737 1.454.699 2.857 1.545 4.326 2.471 2.4-2.458 4.782-5.003 7.265-7.481zm127.831-7.673c-6.232-.637-12.231-1.119-17.984-1.749-4.254 4.577-8.593 9.264-12.92 13.886 5.55.931 11.092 2.045 17.316 3.305 4.539-5.248 9.03-10.467 13.588-15.442m-20.597-2.164c-5.424-.682-10.725-1.143-15.486-1.777a474 474 0 0 0-12.163 12.932c4.713.913 9.576 1.835 14.829 2.675 4.169-4.486 8.564-9.269 12.82-13.83m-17.849-2.039c-4.948-.476-9.385-.898-13.689-1.311A1173 1173 0 0 0 82.971 152.8c4.139.779 8.419 1.567 12.925 2.521 3.921-4.419 8.058-8.781 12.122-12.932M92.3 140.844c-4.213-.402-8.213-.647-12.032-1-3.496 3.528-7.215 7.429-10.59 10.9 3.636.613 7.448 1.067 11.354 1.682 3.567-3.72 7.542-7.776 11.27-11.582zm-13.9-1.136c-3.687-.409-7.131-.909-10.589-1.045-3.248 3.23-6.575 6.593-9.859 10.069 3.099.534 6.397 1.147 9.955 1.807 3.423-3.653 7.052-7.31 10.492-10.831m-12.189-1.102c-3.22-.307-6.19-.591-9.204-.79-3.17 3.062-6.356 6.213-9.111 9.139 2.642.528 5.47 1.073 8.595 1.465a245 245 0 0 1 9.718-9.814zm-10.56-.891c-2.887-.295-5.7-.483-8.22-.756-2.914 2.835-5.782 5.759-8.617 8.583 2.374.556 5.096.84 7.653 1.216 2.99-2.958 5.95-5.981 9.184-9.041zm-9.672-.71c-2.56-.227-4.946-.455-7.206-.664a273 273 0 0 1-7.714 7.649c2.16.364 4.452.916 6.635 1.403 2.722-2.829 5.43-5.514 8.285-8.388m-8.592-.814c-2.19-.153-4.145-.409-6.15-.506a448 448 0 0 0-7.193 7.014c1.85.341 3.59.755 5.562 1.079 2.572-2.516 5.241-5.089 7.78-7.589zm-7.298-.71c-1.885-.227-3.538-.43-5.297-.584-2.282 2.227-4.578 4.384-6.828 6.702 1.545.375 3.208.647 4.933 1.084 2.354-2.408 4.809-4.834 7.194-7.202zm-6.037-.625c-1.588-.262-2.946-.597-4.356-.863-2.063 2.062-4.19 4.152-6.108 6.089 1.245.37 2.664.727 3.974 1.164 2.136-2.135 4.375-4.304 6.49-6.39m-5.254-1.045c-1.236-.244-2.581-.318-3.7-.619-1.954 1.926-3.92 3.835-5.724 5.674 1.007.34 2.019.71 3.203 1.028 1.97-1.93 4.103-3.93 6.223-6.083zm-14.053 1.16c-.38-.325-.7-.829-.972-1.188-1.3 1.374-2.598 2.584-3.682 3.8-.02.597.19 1.125.453 1.636 1.423-1.409 2.73-2.755 4.2-4.248z"/><path d="M30.079 123.753c3.107-.658 6.16-1.318 9.665-2.011.825-.42 1.602-.612 2.594-.982-3.721.909-7.107 1.629-10.38 2.402-.765.517-1.277.279-1.88.591m21.155-3.469c4.4-.381 8.852-.37 13.697-.591.91-.084 1.937-.16 2.999-.483-5.061.483-9.698.375-14.172.643-1.053.392-1.856.251-2.524.433zm88.192 9.143c-5.612-.357-11.18-.557-16.208-.881a480 480 0 0 0-11.898 12.307c4.972.499 10.27.982 15.547 1.594a450 450 0 0 1 12.557-13.023zm-18.654-1.022c-5.022-.08-9.789-.181-14.265-.374-3.632 3.726-7.627 7.628-11.145 11.348 4.234.416 8.834.738 13.584 1.125 3.847-4.062 7.901-8.167 11.826-12.096zm-16.422-.391c-4.434-.109-8.601-.102-12.711-.2a241 241 0 0 0-10.353 10.496c3.86.21 7.853.489 12.015.976 3.464-3.703 7.405-7.622 11.052-11.275zm-14.626-.318c-3.915-.08-7.564-.011-11.106-.126a606 606 0 0 0-9.772 9.582c3.335.147 6.826.567 10.564.972 3.407-3.475 6.887-7.066 10.314-10.428m-12.814-.206c-3.51.067-6.565-.098-9.766-.067-3.155 3.044-6.223 5.975-9.195 8.956 2.953.267 6.034.518 9.298.721 3.163-3.231 6.381-6.286 9.663-9.61m-11.23-.175c-3.133-.035-5.973-.046-8.808-.148a644 644 0 0 0-8.543 8.405c2.533.49 5.281.613 8.158.812 3.085-3.062 5.981-6.02 9.195-9.069zm-10.131-.115c-2.646 0-5.335.119-7.629.056-2.654 2.482-5.374 5.14-8.062 7.685 2.31.136 4.685.329 7.194.625 2.713-2.811 5.644-5.566 8.497-8.366m97.938-12.727c-5.903.063-11.6.148-16.922.28-3.884 3.89-7.757 7.632-11.583 11.49 5.236.176 10.743.438 16.272.676 4.145-4.186 8.303-8.429 12.233-12.443zm-19.407.455c-5.196.017-10.225.245-14.903.398-3.677 3.573-7.381 7.146-10.947 10.695 4.55-.046 9.426.028 14.339.255 3.756-3.947 7.594-7.645 11.511-11.348m-17.268.437c-4.607.091-9.067.273-13.28.461-3.357 3.226-6.776 6.555-10.199 10.054 4.037.028 8.269.108 12.634.175a618 618 0 0 1 10.843-10.69zm-15.214.483c-4.191.238-7.81.311-11.633.528-3.394 3.153-6.475 6.18-9.737 9.331 3.642.017 7.348-.022 11.317.056 3.207-3.35 6.632-6.678 10.053-9.915m-13.593.692c-3.481.067-6.891.165-10.283.364-3.142 3.027-6.15 5.901-9.065 8.729 3.04.154 6.31.175 9.87.098 3.148-3.164 6.299-6.129 9.478-9.191"/><path d="M76.054 116.956c-3.319.227-6.237.352-9.037.465-2.966 2.731-5.999 5.486-8.717 8.156 2.772.045 5.67.136 8.85.056 2.918-2.817 5.873-5.685 8.904-8.677m-10.782.794c-2.95.244-5.562.381-8.223.539-2.713 2.566-5.55 5.213-8.172 7.861 2.504-.192 5.139-.227 7.89-.339a1287 1287 0 0 0 8.505-8.059zm81.318-15.302c-5.402.307-10.516.517-15.459.92-3.665 3.492-7.203 6.873-10.78 10.512 4.878-.329 9.757-.363 15.044-.517a427 427 0 0 1 11.193-10.915zm-17.933 1.268c-4.84.221-9.287.637-13.774 1.108-3.41 3.136-6.713 6.332-10.094 9.587 4.358-.364 8.601-.375 13.315-.522 3.551-3.471 7.119-7.002 10.553-10.173M112.811 105c-4.26.328-8.209.748-12.209 1.181-3.237 2.93-6.364 5.981-9.621 9.041 3.855-.391 7.641-.471 11.876-.783 3.174-3.067 6.549-6.23 9.954-9.439m-14.156 1.322c-3.769.335-7.318.539-10.84.874a1146 1146 0 0 0-9.013 8.524c3.39-.175 6.734-.325 10.488-.493 3.207-3.021 6.18-5.958 9.365-8.905m-12.592 1.086c-3.181.21-6.35.511-9.609.972-2.861 2.612-5.727 5.334-8.51 7.939 2.964-.143 6.036-.437 9.196-.517 3.079-2.88 6.04-5.611 8.923-8.394m-19.346 3.004c-2.798.346-5.479.664-7.94.88-2.528 2.322-5.226 4.783-7.829 7.226 2.474-.221 5.022-.279 7.564-.437 2.583-2.534 5.374-5.094 8.205-7.667zm-9.45 1.01c-2.398.21-4.685.364-6.905.643-2.323 2.237-4.667 4.328-6.902 6.513 1.963-.028 4.204-.188 6.343-.255 2.39-2.227 4.98-4.652 7.464-6.901m83.479-18.878c-4.861.573-9.548 1.125-14.272 1.687a2588 2588 0 0 1-10.05 9.293c4.635-.602 8.984-.864 13.943-1.398 3.388-3.277 6.909-6.363 10.379-9.583m-16.443 1.916c-4.328.471-8.676 1.084-12.808 1.601-3.066 2.891-6.26 5.81-9.461 8.803 4.047-.448 7.955-.762 12.322-1.125 3.432-3.214 6.709-6.202 9.947-9.281zm-14.786 1.833c-3.842.437-7.611.954-11.475 1.534-2.945 2.761-5.758 5.289-8.832 8.117 3.518-.335 7.11-.619 10.89-.87 3.14-3.01 6.386-5.999 9.417-8.781M96.36 98.088c-3.412.521-6.822.971-10.06 1.408-2.813 2.58-5.755 5.168-8.551 7.709 3.212-.329 6.373-.676 9.707-1.052 3.083-2.79 6.001-5.43 8.904-8.065m-20.496 3.629c-2.935.472-5.653.796-8.205 1.125-2.637 2.413-5.299 4.789-7.799 7.219 2.511-.262 5.081-.521 7.932-.885 2.652-2.465 5.294-4.884 8.072-7.457zm-10.098 1.85c-2.598.346-4.913.71-7.274 1.147a1372 1372 0 0 0-7.442 6.678c2.215-.29 4.611-.472 7.007-.671a342 342 0 0 1 7.711-7.156zm85.409-22.521c-5.124.803-9.963 1.52-14.616 2.322-3.342 2.779-6.512 5.635-9.941 8.764 4.689-.716 9.424-1.227 14.261-1.852 3.448-3.186 6.854-6.209 10.294-9.236zM134.351 83.6c-4.58.787-8.954 1.402-13.245 2.144-2.972 2.755-6.086 5.412-9.241 8.3 4.163-.602 8.46-1.13 12.806-1.79 3.183-2.892 6.364-5.71 9.68-8.654m11.863-10.238c-4.659.82-9.124 1.72-13.488 2.534-3.14 2.776-6.211 5.44-9.285 8.113 4.119-.706 8.59-1.387 13.282-2.184 3.098-2.755 6.332-5.602 9.493-8.463zm50.673 2.915c-6.702.924-12.943 1.783-18.879 2.4-3.949 3.4-7.565 6.887-11.064 10.16 5.762-.483 11.898-1.176 18.404-1.875a520 520 0 0 1 11.536-10.683zM16.033 142.24c-1.423-.392-2.726-.807-3.971-1.143-1.932 1.909-3.93 3.856-5.823 5.999.962.5 2.096 1.101 3.292 1.647 2.067-2.084 4.291-4.363 6.502-6.503m5.332 1.346c-1.67-.392-3.217-.818-4.703-1.203-2.27 2.293-4.436 4.499-6.501 6.593 1.2.658 2.524 1.273 3.969 1.902 2.35-2.436 4.8-4.929 7.234-7.292m6.196 1.404c-1.916-.34-3.656-.811-5.334-1.29-2.546 2.573-4.996 5.01-7.285 7.391 1.567.506 3.142 1.101 5.011 1.573 2.513-2.567 5.126-5.146 7.61-7.674zm7.908 1.578c-2.239-.483-4.412-.994-6.57-1.336-2.54 2.517-5.201 5.339-7.771 8.003 1.943.528 3.838 1.3 5.799 2.067 2.79-3 5.735-5.85 8.542-8.737zm8.593 1.419c-2.617-.391-5.222-.783-7.415-1.283-2.864 2.839-5.808 5.726-8.654 8.702 2.213.72 4.548 1.346 6.959 2.027 2.885-3.09 5.923-6.213 9.11-9.446m9.801 1.87a156 156 0 0 1-8.423-1.545 672 672 0 0 0-9.274 9.604c2.424.692 5.048 1.556 7.742 2.367a1651 1651 0 0 1 9.955-10.428zm11.064 2.322c-3.427-.584-6.61-1.244-9.715-1.874-3.32 3.527-6.624 6.923-9.949 10.433 2.846.926 5.886 1.828 9 2.737 3.52-3.835 7.187-7.678 10.664-11.296m13.998 2.028c-3.934-.784-7.7-1.37-11.204-1.881-3.594 3.579-7.241 7.496-10.814 11.32 3.314.79 6.89 1.64 10.46 2.818 3.93-4.311 7.67-8.315 11.56-12.257zm14.394 2.545c-4.433-.864-8.797-1.84-12.627-2.595-3.925 4.118-7.899 8.178-11.65 12.387 3.78 1.153 7.779 2.413 12.144 3.443 4-4.443 8.031-8.754 12.133-13.233zm17.109 3.051c-5.133-.892-10.225-1.664-14.623-2.93-4.14 4.562-8.373 9.162-12.3 13.642 4.365 1.261 8.95 2.545 13.804 3.765 4.439-4.975 8.688-9.684 13.121-14.477zm19.385 4.094c-6.032-1.244-11.578-2.357-16.791-3.538-4.476 4.912-8.998 9.82-13.415 14.938 5.44 1.504 10.457 3.38 16.215 4.849a1664 1664 0 0 0 13.991-16.249m22.405 5.122a940 940 0 0 1-19.609-4.055c-4.704 5.395-9.398 10.887-14.098 16.256 5.886 1.943 12.12 3.845 18.661 5.793 5.174-6.3 10.092-12.222 15.046-17.994m233.207-31.185c-4.441-3.545-8.789-7.122-12.762-10.387-6.419 3.629-12.81 7.009-19.264 10.841 3.602 3.755 7.168 7.691 11.478 11.718 6.959-4.107 13.913-8.191 20.545-12.172zm-217.845-7.275c-1.766-1.777-3.492-3.43-5.287-4.846-2.5 1.749-5.105 3.612-7.677 5.384 1.597 1.682 3.105 3.489 4.726 5.521 2.768-2.067 5.529-4.118 8.241-6.059zM97.658 64.922a41 41 0 0 1-1.9-3.23c-2.249 1.858-4.651 3.87-7.01 5.831.368 1.258.888 2.407 1.475 3.638 2.468-2.07 4.977-4.176 7.433-6.239zM462.912 246.62c-5.55-4.339-10.786-8.496-15.871-12.155-6.621 2.034-13.118 4.443-19.936 6.741 4.944 3.999 9.81 8.321 14.81 12.977 7.111-2.67 14.385-5.076 21-7.565zM113.503 78.997c-.546-.6-.977-1.184-1.405-1.746-1.463 1.06-2.933 2.1-4.354 3.14.328.642.668 1.397 1.048 2.03 1.574-1.137 3.088-2.264 4.711-3.426zm50.386-27.424a84 84 0 0 0-3.803-1.513 225 225 0 0 0-5.634 3.956c1.04.625 2.183 1.181 3.482 1.9 1.941-1.513 3.949-2.926 5.955-4.341zm280.445 51.353c-5.226-2.146-10.085-4.02-14.702-5.786-5.971 2.471-11.624 4.839-17.033 7.349 4.171 2.079 8.564 4.209 13.479 6.827 6.311-2.936 12.442-5.849 18.256-8.39M142.515 48.227c-.796-.374-1.393-.866-2.024-1.236-1.518.991-2.965 2.11-4.428 3.19.536.474 1.03 1.034 1.676 1.467a116 116 0 0 1 4.776-3.421m-33.226-8.176c-.422-.307-.884-.543-1.299-.826-1.095.846-2.294 1.72-3.344 2.527.363.33.678.662 1.003 1.043 1.199-.902 2.443-1.822 3.64-2.744m-80.224 83.327c-.179-.454-.414-.909-.536-1.346-.874.597-1.69 1.279-2.565 1.902.067.528.19 1.028.311 1.528.986-.699 1.863-1.391 2.79-2.084m437.862 49.993c-3.721-1.777-6.732-3.454-9.909-5.059-4.665 1.317-9.132 2.51-13.584 3.8 2.73 1.646 5.822 3.566 9.095 5.384 4.876-1.325 9.652-2.766 14.398-4.125M193.112 42.977c-1.306-.385-2.639-.65-3.769-1.043-1.817 1.184-3.736 2.413-5.455 3.553 1.095.48 2.12.89 3.329 1.34a191 191 0 0 1 5.895-3.85m-48.11-29.262c-.829-.153-1.658-.285-2.472-.326-1.366.865-2.668 1.854-3.975 2.802.774.134 1.553.281 2.334.452a178 178 0 0 1 4.113-2.928m-20.641 35.847c-.753-.238-1.495-.407-2.189-.619-1.168.84-2.491 1.762-3.718 2.593.698.246 1.342.476 2.045.727 1.323-.918 2.544-1.781 3.864-2.701zm-17.74 19.308c-.753-.248-1.458-.531-2.15-.713a165 165 0 0 1-3.472 2.292c.698.247 1.396.506 2.047.8 1.155-.785 2.367-1.575 3.575-2.38m117.13 10.327c-1.634-.426-3.201-.861-4.707-1.264-1.982 1.067-3.912 2.082-6.003 3.198 1.547.353 3.066.836 4.583 1.284 1.971-1.1 4.129-2.19 6.127-3.218m-135.36 6.572c-.698-.244-1.403-.567-2.045-.824a315 315 0 0 0-3.088 2.084c.588.272 1.18.58 1.828.908 1.084-.748 2.172-1.402 3.305-2.17zm8.865-28.645c-.611-.158-1.21-.218-1.817-.331-.89.606-1.823 1.283-2.72 1.852.5.109 1.11.264 1.62.438.987-.682 1.925-1.34 2.917-1.957zM546 213.243c-4.965-1.493-10.216-3.266-15.523-4.804-4.915 1.051-10.225 1.8-15.216 2.72a358 358 0 0 1 14.713 4.862c5.577-.937 10.736-1.8 16.026-2.776zM164.4 22.638c-1.094.043-2.08.054-3.065.063a245 245 0 0 0-3.606 2.32c.981-.046 1.88.036 2.87.027 1.245-.818 2.491-1.644 3.799-2.41zM5.721 143.389c-.335-.249-.67-.506-.89-.744-.624.398-1.307.852-1.877 1.216.22.266.496.493.772.779a38 38 0 0 1 1.995-1.249zm295.046-26.524c-2.472-.602-5.12-.961-7.642-1.506-2.484.863-4.745 1.618-6.967 2.506 2.289.419 4.768 1.01 7.355 1.601 2.417-.892 4.9-1.749 7.252-2.601zm-8.438 44.833c-2.23-1.391-4.436-2.776-6.656-3.981-3.107 1.192-6.275 2.594-9.465 3.947 2.065 1.374 4.117 2.713 6.19 4.276 3.458-1.567 6.733-2.881 9.931-4.244zm-54.004-55.363c-2.01-1.147-3.864-2.171-5.585-3.168a584 584 0 0 0-8.158 4.604c1.732 1.063 3.279 2.34 5.209 3.437 2.929-1.643 5.725-3.276 8.534-4.873"/></g><defs><clipPath id="a"><path fill="#fff" d="M-20 0h566v308H-20z"/></clipPath></defs></svg>